<?xml version="1.0" encoding="utf-8"?>
<!-- Generator: Adobe Illustrator 19.2.1, SVG Export Plug-In . SVG Version: 6.00 Build 0)  -->
<svg version="1.1" id="Layer_1" xmlns="http://www.w3.org/2000/svg" xmlns:xlink="http://www.w3.org/1999/xlink" x="0px" y="0px"
	 viewBox="0 0 1400 980" style="enable-background:new 0 0 1400 980;" xml:space="preserve">
<style type="text/css">
	.st0{fill:#B9CCD3;}
	.st1{fill:#A1B9BF;}
	.st2{fill:#90AAAF;}
	.st3{fill:#5A6367;}
	.st4{fill:#4B5256;}
	.st5{fill:#393F42;}
	.st6{fill:#8B9AA0;}
	.st7{fill:#A6B4BC;}
	.st8{fill:#CAD9DD;}
	.st9{fill:#E4EFF1;}
	.st10{fill:#003444;}
	.st11{fill:#E5B08C;}
	.st12{fill:#C4403F;}
	.st13{fill:#0AB595;}
	.st14{fill:#98A6AA;}
	.st15{fill:#004660;}
	.st16{fill:#F5F4EF;}
	.st17{fill:#E44E4E;}
	.st18{fill:#DDAA87;}
	.st19{fill:#F6C19D;}
	.st20{fill:#0E3441;}
	.st21{fill:#AA2561;}
	.st22{fill:#FFFFFF;}
	.st23{fill:#CC6297;}
	.st24{fill:#97A6AA;}
	.st25{fill:#2C8DA3;}
	.st26{fill:#E5E3DC;}
	.st27{fill:#41AFD1;}
	.st28{fill:#C17E63;}
	.st29{fill:#CC5D30;}
	.st30{fill:#EC6523;}
	.st31{fill:#F3F2EC;}
	.st32{fill:#C9C690;}
	.st33{fill:#0B4861;}
</style>
<path class="st0" d="M700,258.3L700,258.3c-257.9,0-467,209.1-467,467v112.4H1167V725.3C1167,467.4,957.9,258.3,700,258.3z"/>
<g>
	<path class="st1" d="M1075.1,673.3h-337c-8.5,0-15.4,6.9-15.4,15.4v0c0,8.5,6.9,15.4,15.4,15.4h337c8.5,0,15.4-6.9,15.4-15.4v0
		C1090.5,680.2,1083.6,673.3,1075.1,673.3z"/>
	<rect x="739.7" y="704" class="st2" width="334" height="26.3"/>
	<g>
		<rect x="758.5" y="730.3" class="st1" width="20.8" height="100.8"/>
		<rect x="1034" y="730.3" class="st1" width="20.8" height="100.8"/>
	</g>
</g>
<g>
	<g>
		<path class="st3" d="M1049.8,736.5h-28.8c-17,0-30.7,13.7-30.7,30.7v33.3c0,17,13.7,30.7,30.7,30.7h28.8c17,0,30.7-13.7,30.7-30.7
			v-33.3C1080.5,750.2,1066.8,736.5,1049.8,736.5z"/>
		<path class="st4" d="M1064.4,736.5h-28.8c-17,0-30.7,13.7-30.7,30.7v33.3c0,17,13.7,30.7,30.7,30.7h28.8c17,0,30.7-13.7,30.7-30.7
			v-33.3C1095.1,750.2,1081.3,736.5,1064.4,736.5z"/>
		<path class="st5" d="M1035.6,815.8c-8.5,0-15.3-6.9-15.3-15.3v-33.3c0-8.5,6.9-15.3,15.3-15.3h28.8c8.5,0,15.3,6.9,15.3,15.3v33.3
			c0,8.5-6.9,15.3-15.3,15.3H1035.6z"/>
	</g>
	<path class="st6" d="M1067.1,775.2h-27.2c-4.8,0-8.6,3.9-8.6,8.6c0,4.8,3.9,8.6,8.6,8.6h27.2c4.8,0,8.6-3.9,8.6-8.6
		C1075.8,779,1071.9,775.2,1067.1,775.2z"/>
	<g>
		<path class="st3" d="M1120.3,736.5h-28.8c-17,0-30.7,13.7-30.7,30.7v33.3c0,17,13.7,30.7,30.7,30.7h28.8c17,0,30.7-13.7,30.7-30.7
			v-33.3C1151,750.2,1137.3,736.5,1120.3,736.5z"/>
		<path class="st4" d="M1134.9,736.5h-28.8c-17,0-30.7,13.7-30.7,30.7v33.3c0,17,13.7,30.7,30.7,30.7h28.8c17,0,30.7-13.7,30.7-30.7
			v-33.3C1165.6,750.2,1151.8,736.5,1134.9,736.5z"/>
		<path class="st5" d="M1106.1,815.8c-8.5,0-15.3-6.9-15.3-15.3v-33.3c0-8.5,6.9-15.3,15.3-15.3h28.8c8.5,0,15.3,6.9,15.3,15.3v33.3
			c0,8.5-6.9,15.3-15.3,15.3H1106.1z"/>
		<g>
			<path class="st7" d="M1124.4,783.8c0-3-1.6-5.7-4-7.2v-1.4h-4.7c-4.8,0-8.6,3.9-8.6,8.6c0,4.8,3.9,8.6,8.6,8.6h4.7V791
				C1122.9,789.5,1124.4,786.8,1124.4,783.8z"/>
			<circle class="st6" cx="1120.5" cy="783.8" r="8.6"/>
		</g>
	</g>
</g>
<g>
	<g>
		<g>
			<rect x="526" y="370.5" class="st8" width="143.8" height="190"/>
			<g>
				<path class="st9" d="M543.6,394.8c-2.5,1.5-3.4,4.7-1.9,7.2l44.5,77.1c1.5,2.5,4.7,3.4,7.2,1.9c2.5-1.5,3.4-4.7,1.9-7.2
					l-44.5-77.1C549.4,394.2,546.1,393.4,543.6,394.8z"/>
				<path class="st9" d="M560.9,384.8c-2.5,1.5-3.4,4.7-1.9,7.2l26.2,45.4c1.5,2.5,4.7,3.4,7.2,1.9c2.5-1.5,3.4-4.7,1.9-7.2
					l-26.2-45.4C566.7,384.2,563.5,383.4,560.9,384.8z"/>
				<path class="st9" d="M597.6,448.3c-2.5,1.5-3.4,4.7-1.9,7.2l16.9,29.3c1.5,2.5,4.7,3.4,7.2,1.9c2.5-1.5,3.4-4.7,1.9-7.2
					l-16.9-29.3C603.3,447.7,600.1,446.9,597.6,448.3z"/>
			</g>
		</g>
	</g>
	<g>
		<g>
			<rect x="687.3" y="370.5" class="st8" width="143.8" height="190"/>
			<g>
				<path class="st9" d="M705,394.8c-2.5,1.5-3.4,4.7-1.9,7.2l44.5,77.1c1.5,2.5,4.7,3.4,7.2,1.9c2.5-1.5,3.4-4.7,1.9-7.2
					l-44.5-77.1C710.7,394.2,707.5,393.4,705,394.8z"/>
				<path class="st9" d="M722.3,384.8c-2.5,1.5-3.4,4.7-1.9,7.2l26.2,45.4c1.5,2.5,4.7,3.4,7.2,1.9c2.5-1.5,3.4-4.7,1.9-7.2
					l-26.2-45.4C728,384.2,724.8,383.4,722.3,384.8z"/>
				<path class="st9" d="M759,448.3c-2.5,1.5-3.4,4.7-1.9,7.2l16.9,29.3c1.5,2.5,4.7,3.4,7.2,1.9c2.5-1.5,3.4-4.7,1.9-7.2
					l-16.9-29.3C764.7,447.7,761.5,446.9,759,448.3z"/>
			</g>
		</g>
	</g>
	<g>
		<g>
			<rect x="848.7" y="370.5" class="st8" width="143.8" height="190"/>
			<g>
				<path class="st9" d="M866.3,394.8c-2.5,1.5-3.4,4.7-1.9,7.2l44.5,77.1c1.5,2.5,4.7,3.4,7.2,1.9c2.5-1.5,3.4-4.7,1.9-7.2
					l-44.5-77.1C872.1,394.2,868.8,393.4,866.3,394.8z"/>
				<path class="st9" d="M883.6,384.8c-2.5,1.5-3.4,4.7-1.9,7.2l26.2,45.4c1.5,2.5,4.7,3.4,7.2,1.9s3.4-4.7,1.9-7.2l-26.2-45.4
					C889.4,384.2,886.2,383.4,883.6,384.8z"/>
				<path class="st9" d="M920.3,448.3c-2.5,1.5-3.4,4.7-1.9,7.2l16.9,29.3c1.5,2.5,4.7,3.4,7.2,1.9c2.5-1.5,3.4-4.7,1.9-7.2
					l-16.9-29.3C926.1,447.7,922.8,446.9,920.3,448.3z"/>
			</g>
		</g>
	</g>
</g>
<g>
	<path class="st10" d="M586.8,596.4h-37.3c-7,0-12.6-5.6-12.6-12.6c0-7,5.6-12.6,12.6-12.6h37.3c1.6,0,3.1-1.2,3.4-2.8l19.5-93.4
		c1.4-6.8,8.1-11.2,14.9-9.8c6.8,1.4,11.2,8.1,9.8,14.9l-19.5,93.4C612.1,586.9,600.3,596.4,586.8,596.4z"/>
	<path class="st11" d="M632.5,500.2l-23.6-3.5c-6-0.9-11.7,3.3-12.5,9.3l-4,27.2c-0.9,6,3.3,11.7,9.3,12.5l23.6,3.5
		c6,0.9,11.7-3.3,12.5-9.3l4-27.2C642.7,506.8,638.5,501.1,632.5,500.2z"/>
	<path class="st11" d="M597.1,551.2c-49,0-90.2-16.3-116.4-30.2c-34.3-18.2-58.2-40.1-69.2-54.5c-7.4-9.7-5.5-23.5,4.2-30.9
		c9.7-7.4,23.5-5.5,30.9,4.2c16.5,21.7,78.1,68.7,154,67.3c12.1-0.2,22.2,9.4,22.5,21.6c0.2,12.2-9.4,22.2-21.6,22.5
		C600,551.2,598.6,551.2,597.1,551.2z"/>
	<path class="st12" d="M482.8,519.8c-4.9,0-10-1.4-14.4-4.4c-30.9-20.6-49-42.2-55.3-50.5c-8.7-11.4-6.5-27.7,4.9-36.4
		c11.4-8.7,27.7-6.5,36.4,4.9c3.7,4.8,17.7,22,42.8,38.7c11.9,8,15.1,24.1,7.2,36C499.4,515.7,491.2,519.8,482.8,519.8z"/>
	<path class="st13" d="M638.5,577.7h-91.4V541c0-8.8,7.2-16,16-16h16.4l56.2,17.8h3.1c6.1,0,11,4.9,11,11v12.5
		C649.9,572.6,644.8,577.7,638.5,577.7z"/>
	<path class="st14" d="M534.6,750v-22c3,0,5.1-0.9,7.1-2.9c13.5-13.9,12.2-67.6,11-115c-0.4-15.8-0.8-32-0.8-48h22
		c0,15.7,0.4,31.9,0.8,47.5c1.5,59.2,2.8,110.4-17.2,130.9C551.4,746.7,543.4,750,534.6,750z"/>
	<path class="st11" d="M491.7,740.4c-1.9,0-3.9-0.3-5.8-0.8c-11.7-3.2-18.7-15.3-15.5-27l17.6-64.6l-97-36.2
		c-11.4-4.2-17.2-16.9-12.9-28.3c4.2-11.4,16.9-17.2,28.3-12.9l115.9,43.2c10.7,4,16.6,15.4,13.6,26.4l-22.9,84
		C510.3,733.9,501.4,740.4,491.7,740.4z"/>
	<path class="st10" d="M514.6,661c-3.1,0-6.3-0.5-9.3-1.7l-115.9-43.2c-13.8-5.2-20.9-20.6-15.7-34.4c5.2-13.8,20.6-20.9,34.4-15.7
		l115.9,43.2c13.8,5.2,20.9,20.6,15.7,34.4C535.6,654.4,525.4,661,514.6,661z"/>
	<g>
		<rect x="360.3" y="631" class="st14" width="23.6" height="47.5"/>
		<path class="st13" d="M323.6,707v69.8c0,18.1,14.7,32.8,32.8,32.8h161.1c18.1,0,32.8-14.7,32.8-32.8V734
			c0-22.7-15.9-42.2-38.2-46.8l-131.2-27C351.4,654.1,323.6,676.7,323.6,707z"/>
		<path class="st15" d="M520,831.3h-25.5c-6,0-10.8-4.9-10.8-10.8v0c0-6,4.9-10.8,10.8-10.8H520c6,0,10.8,4.9,10.8,10.8v0
			C530.8,826.4,525.9,831.3,520,831.3z"/>
		<path class="st15" d="M373,831.3h-25.5c-6,0-10.8-4.9-10.8-10.8v0c0-6,4.9-10.8,10.8-10.8H373c6,0,10.8,4.9,10.8,10.8v0
			C383.9,826.4,379,831.3,373,831.3z"/>
		<circle class="st16" cx="470" cy="746.1" r="32.3"/>
		<path class="st13" d="M403.8,631h-56.3c-6,0-10.8-4.8-10.8-10.8v-9.5c0-6.7,6-11.8,12.6-10.7l56.3,9.5c5.2,0.9,9,5.4,9,10.7l0,0
			C414.6,626.1,409.8,631,403.8,631z"/>
	</g>
	<path class="st17" d="M471.6,475.1v74.5c0,35.5-28.8,64.3-64.3,64.3h-21.1c-35.5,0-64.3-28.8-64.3-64.3v-74.5
		c0-35.5,28.8-64.3,64.3-64.3h21.1C442.8,410.8,471.6,439.6,471.6,475.1z"/>
	<path class="st18" d="M422.8,456c-7.7,0-15.4-3.4-20.7-9.8c-9.4-11.4-7.7-28.3,3.8-37.6l44.1-36c11.4-9.3,28.3-7.7,37.6,3.8
		c9.4,11.4,7.7,28.3-3.8,37.6l-44.1,36C434.8,454.1,428.8,456,422.8,456z"/>
	<g>
		<path class="st19" d="M361.7,290.6v69.2c0,45.2,36.6,81.8,81.8,81.8h0c45.2,0,81.8-36.6,81.8-81.8v-69.2
			c0-45.2-36.6-81.8-81.8-81.8h0C398.3,208.8,361.7,245.4,361.7,290.6z"/>
		<g>
			<path class="st20" d="M508,321.4c-6.9,0-12.5,5.6-12.5,12.5v8.9c0,6.9,5.6,12.5,12.5,12.5c6.9,0,12.5-5.6,12.5-12.5v-8.9
				C520.6,327,515,321.4,508,321.4z"/>
			<path class="st20" d="M433.5,321.4c-6.9,0-12.5,5.6-12.5,12.5v8.9c0,6.9,5.6,12.5,12.5,12.5c6.9,0,12.5-5.6,12.5-12.5v-8.9
				C446,327,440.4,321.4,433.5,321.4z"/>
			<path class="st20" d="M411.8,318.7c-1.5,0-3-0.7-3.9-2.1c-1.4-2.2-0.8-5.1,1.3-6.5c18.9-12.5,38.7-6.7,47.5,0.2
				c2,1.6,2.4,4.6,0.8,6.6c-1.6,2-4.6,2.4-6.6,0.8c-4.3-3.4-20.1-10.6-36.4,0.2C413.6,318.4,412.7,318.7,411.8,318.7z"/>
			<path class="st20" d="M528,318.4c-0.6,0-1.3-0.1-1.9-0.4c-14.3-6.3-28.2-2.1-31.9-0.1c-2.3,1.2-5.2,0.3-6.4-2
				c-1.2-2.3-0.3-5.2,2-6.4c7.4-3.9,24.2-7.2,40.1-0.1c2.4,1.1,3.5,3.8,2.4,6.2C531.6,317.4,529.8,318.4,528,318.4z"/>
		</g>
		<path class="st20" d="M553,233c0-5.1-1.2-9.9-3.3-14.2c-4.2,5.4-10.1,9.4-17,11.2c7.7-15.5,3.8-34.8-10.4-45.8
			c-4.7-3.7-10-6.1-15.5-7.2c1.6,6.1,1.6,12.6-0.1,18.8c-3.1-2.4-6.6-4.3-10.5-5.5c-5.1-1.5-10.2-1.8-15.1-0.9
			c1.6,2.2,2.8,4.5,3.8,7l-109,0c-10,0-18.2,8.2-18.1,18.3l0,2.3l-1.4,0c-11,0-19.9,9-19.8,20l0.5,137.8c0,5.2,4.3,9.4,9.5,9.4
			l18.5-0.1l-0.2-45.8h10.4v17.9c0,3.9,3.2,7.1,7.1,7.1h8.3c3.9,0,7.1-3.2,7.1-7.1v-68.4c10.3-2.2,19.1-8.3,24.7-16.8
			c-1.1,4.7-3,9.2-5.9,13.2c7.8,1.3,16.1,0.1,23.6-3.9c3-1.6,5.7-3.6,8.1-5.9c-0.3,4.7-1.4,9.3-3.4,13.6c7.9-0.1,15.9-2.8,22.5-8.1
			c2.2-1.8,4.2-3.7,5.8-5.8c1.7,2,3.6,4,5.7,5.7c6.7,5.3,14.6,7.9,22.6,8c-3-6.5-4.1-13.8-3.1-20.9c3.4,5.4,8.1,9.9,14.1,13.1
			c6.8,3.6,14.2,4.9,21.3,4.1l0-4.1l-0.1-18.1C545.1,257.1,553,246,553,233z"/>
		<path class="st19" d="M375.4,308.8c-1.8-0.4-3.6-0.6-5.5-0.6c-15.2,0-27.5,12.3-27.5,27.5s12.3,27.5,27.5,27.5
			c1.9,0,3.7-0.2,5.5-0.6V308.8z"/>
		<g>
			<path class="st21" d="M489.1,386.8v19c0,4.8-3.9,8.7-8.7,8.7h-3.9c-4.8,0-8.7-3.9-8.7-8.7v-19c0-4.8,3.9-8.7,8.7-8.7h3.9
				C485.2,378.1,489.1,382,489.1,386.8z"/>
			<path class="st22" d="M489.1,386.8v1.8h-21.2v-1.8c0-4.8,3.9-8.7,8.7-8.7h3.9C485.2,378.1,489.1,382,489.1,386.8z"/>
			<path class="st23" d="M489.1,403.6v2.2c0,4.8-3.9,8.7-8.7,8.7h-3.9c-4.8,0-8.7-3.9-8.7-8.7v-7.5c2.2-1,4.6-1.5,7.2-1.5
				C480.8,396.7,485.9,399.4,489.1,403.6z"/>
		</g>
	</g>
	<path class="st15" d="M471.6,548.3v1.3c0,35.5-28.8,64.3-64.3,64.3h-21.1c-35.5,0-64.3-28.8-64.3-64.3v-1.3H471.6z"/>
	<path class="st19" d="M560.8,590.1c-101,0-177.8-65.1-207.6-104.3c-7.9-10.4-5.9-25.2,4.5-33.1c10.4-7.9,25.2-5.9,33.1,4.5
		c23.2,30.5,89.6,87.7,174.6,85.6c0.2,0,0.4,0,0.6,0c12.8,0,23.3,10.2,23.6,23c0.3,13-10,23.9-23,24.2
		C564.7,590.1,562.7,590.1,560.8,590.1z"/>
	<path class="st12" d="M430.9,551c-4.9,0-10-1.4-14.4-4.4c-36.5-24.3-57.7-49.6-65.1-59.4c-8.7-11.4-6.5-27.7,4.9-36.4
		c11.4-8.7,27.7-6.5,36.4,4.9c4.5,6,21.8,27.1,52.6,47.6c11.9,8,15.1,24.1,7.2,36C447.5,546.9,439.3,551,430.9,551z"/>
	<path class="st19" d="M456.7,774.6c-12.2,0-22-9.9-22-22v-87.2c-11.8-13.2-39.4-44.1-52.9-56.8c-8.9-8.3-9.3-22.3-0.9-31.1
		c8.3-8.9,22.3-9.3,31.1-0.9c18.9,17.8,59.6,64,61.3,66c3.5,4,5.5,9.2,5.5,14.5v95.5C478.7,764.8,468.8,774.6,456.7,774.6z"/>
	<path class="st15" d="M456.7,683.8c-7.4,0-14.8-3.1-20.1-9.1c0,0-4.7-5.4-11.6-13.1c-21.3-23.9-37.9-41.5-46.5-49.6
		c-10.7-10.1-11.2-27.1-1.1-37.8c10.1-10.7,27.1-11.2,37.8-1.1c12.4,11.7,33.8,35.2,49.6,52.9c7.1,8,12,13.5,12,13.5
		c9.8,11.1,8.7,28-2.4,37.7C469.2,681.6,462.9,683.8,456.7,683.8z"/>
	<g>
		<path class="st15" d="M523.5,773.1v9.1c0,3.1-2.5,5.6-5.6,5.6h-83.7v-40.1h63.9C512.2,747.8,523.5,759.1,523.5,773.1z"/>
		<path class="st16" d="M523.5,780.8v1.5c0,3.1-2.5,5.6-5.6,5.6h-83.7v-11.6h23.1c3.4,0,6.8,0.8,10,2.3l0,0c3.1,1.5,6.5,2.3,10,2.3
			H523.5z"/>
	</g>
	<path class="st15" d="M578.4,617.8h-38.8c-7,0-12.6-5.6-12.6-12.6c0-7,5.6-12.6,12.6-12.6h38.8c2,0,3.7-1.4,4.1-3.3l20.3-97.3
		c1.4-6.8,8.1-11.2,14.9-9.8c6.8,1.4,11.2,8.1,9.8,14.9l-20.3,97.3C604.2,608,592.2,617.8,578.4,617.8z"/>
	<path class="st15" d="M505.4,787.9h-27.4c-2.7,0-4.9,2.2-4.9,4.9v4.9c0,2.7,2.2,4.9,4.9,4.9h27.4c2.7,0,4.9-2.2,4.9-4.9v-4.9
		C510.3,790.1,508.1,787.9,505.4,787.9z"/>
	<circle class="st16" cx="491.8" cy="795.2" r="3.3"/>
	<path class="st19" d="M562.9,542.4v47.7H620c6.6,0,12-5.4,12-12V546c0-6.6-5.4-12-12-12h-48.7C566.6,534,562.9,537.8,562.9,542.4z"
		/>
</g>
<path class="st24" d="M1192.2,831.3H207.8c-8.1,0-14.7,6.6-14.7,14.7v0c0,8.1,6.6,14.7,14.7,14.7h984.4c8.1,0,14.7-6.6,14.7-14.7v0
	C1206.9,837.8,1200.3,831.3,1192.2,831.3z"/>
<g>
	<path class="st19" d="M759.2,420.2c-6,0-10.9-4.8-11-10.8l-0.4-27c-0.1-6.1,4.8-11.1,10.8-11.2c6.1,0,11.1,4.8,11.2,10.8l0.4,27
		c0.1,6.1-4.8,11.1-10.8,11.2C759.3,420.2,759.3,420.2,759.2,420.2z"/>
	<path class="st19" d="M825.7,495.1c-4.3,0-8.6-1.2-12.4-3.5l-69.1-42.9c-11.1-6.9-14.5-21.4-7.6-32.5c6.9-11.1,21.4-14.5,32.5-7.6
		l54.3,33.7l48.2-42.3c9.8-8.6,24.7-7.6,33.3,2.2c8.6,9.8,7.6,24.7-2.2,33.3l-61.4,53.8C836.9,493.1,831.3,495.1,825.7,495.1z"/>
	<g>
		<g>
			<path class="st11" d="M898.9,817.6c-12.2,0-22-9.9-22-22v-225c0-12.2,9.9-22,22-22s22,9.9,22,22v225
				C920.9,807.7,911,817.6,898.9,817.6z"/>
			<rect x="863.2" y="562.4" class="st10" width="71.4" height="106.3"/>
			<path class="st25" d="M924.3,784.7v46.5H815v-14.9c0-17.5,14.2-31.6,31.6-31.6H924.3z"/>
			<path class="st25" d="M874.6,775.7h2.1v11.1h-8.5v-4.7C868.2,778.6,871.1,775.7,874.6,775.7z"/>
			<g>
				<path class="st26" d="M847.3,781.2c-2,0-3.6,1.6-3.6,3.6v8.4c0,2,1.6,3.6,3.6,3.6c2,0,3.6-1.6,3.6-3.6v-8.4
					C850.8,782.8,849.2,781.2,847.3,781.2z"/>
				<path class="st26" d="M859.5,781.2c-2,0-3.6,1.6-3.6,3.6v8.4c0,2,1.6,3.6,3.6,3.6c2,0,3.6-1.6,3.6-3.6v-8.4
					C863.1,782.8,861.5,781.2,859.5,781.2z"/>
			</g>
		</g>
		<rect x="815" y="821" class="st10" width="109.3" height="10.2"/>
	</g>
	<path class="st27" d="M994.9,425.5v106.6c0,33-26.8,59.8-59.8,59.8h-22.1c-33,0-59.8-26.8-59.8-59.8V425.5
		c0-33,26.8-59.8,59.8-59.8H935C968.1,365.7,994.9,392.5,994.9,425.5z"/>
	<path class="st18" d="M919.3,397.7c-14.8,0-26.7-12-26.7-26.7v-45.6c0-14.8,12-26.7,26.7-26.7c14.8,0,26.7,12,26.7,26.7V371
		C946,385.8,934,397.7,919.3,397.7z"/>
	<g>
		<path class="st28" d="M970.4,205.4V315l0,0c14.2,0,25.7-11.5,25.7-25.7v-83.9H970.4z"/>
		<path class="st19" d="M979,226v69.2c0,45.2-36.6,81.8-81.8,81.8h0c-45.2,0-81.8-36.6-81.8-81.8V226c0-45.2,36.6-81.8,81.8-81.8h0
			C942.3,144.2,979,180.8,979,226z"/>
		<g>
			<path class="st20" d="M830,264.4c6.9,0,12.5,5.6,12.5,12.5v8.9c0,6.9-5.6,12.5-12.5,12.5s-12.5-5.6-12.5-12.5V277
				C817.4,270.1,823,264.4,830,264.4z"/>
			<path class="st20" d="M904.5,264.4c6.9,0,12.5,5.6,12.5,12.5v8.9c0,6.9-5.6,12.5-12.5,12.5s-12.5-5.6-12.5-12.5V277
				C892,270.1,897.6,264.4,904.5,264.4z"/>
			<path class="st29" d="M928.9,254.1c-0.9,0-1.8-0.3-2.6-0.8c-16.3-10.8-32.2-3.6-36.4-0.2c-2,1.6-5,1.3-6.6-0.8
				c-1.6-2-1.3-5,0.8-6.6c8.8-6.9,28.6-12.7,47.5-0.2c2.2,1.4,2.8,4.4,1.3,6.5C931.9,253.3,930.4,254.1,928.9,254.1z"/>
			<path class="st29" d="M812.6,253.9c-1.8,0-3.5-1.1-4.3-2.8c-1.1-2.4,0-5.2,2.4-6.2c15.9-7,32.7-3.8,40.1,0.1
				c2.3,1.2,3.2,4.1,2,6.4c-1.2,2.3-4.1,3.2-6.4,2c-3.7-2-17.6-6.2-31.9,0.1C813.9,253.7,813.3,253.9,812.6,253.9z"/>
		</g>
		<g>
			<path class="st21" d="M922.2,330.5c0,4.2-0.8,8.3-2.3,12.1c-1,2.5-2.2,4.8-3.7,7c-6,8.6-15.9,14.2-27.2,14.2
				c-5.7,0-11-1.4-15.6-3.9c-6.9-3.7-12.4-9.8-15.3-17.2c-1.5-3.7-2.3-7.8-2.3-12.1H922.2z"/>
			<path class="st22" d="M922.2,330.5c0,4.2-0.8,8.3-2.3,12.1h-61.8c-1.5-3.7-2.3-7.8-2.3-12.1H922.2z"/>
			<path class="st23" d="M916.2,349.5c-6,8.6-15.9,14.2-27.2,14.2c-5.7,0-11-1.4-15.6-3.9c8.3-7.3,19.2-11.7,31.2-11.7
				C908.5,348,912.4,348.5,916.2,349.5z"/>
		</g>
		<path class="st28" d="M951,205.4v55.5c0,5.7,4.7,10.4,10.4,10.4h28.4v-65.9H951z"/>
		<path class="st19" d="M965.2,244.3c1.8-0.4,3.6-0.6,5.5-0.6c15.2,0,27.5,12.3,27.5,27.5s-12.3,27.5-27.5,27.5
			c-1.9,0-3.7-0.2-5.5-0.6V244.3z"/>
		<path class="st30" d="M1010.3,200.8l-45.1,13.5v-58.7h18.1c14.9,0,27,12.1,27,27V200.8z"/>
		<path class="st30" d="M819.9,124.5h137.9c13.2,0,23.9,10.7,23.9,23.9v26.9H819.9V124.5z"/>
		<polygon class="st30" points="1010.3,200.8 1004,243.7 979,200.8 		"/>
		<polygon class="st30" points="995.7,200.8 976.4,238.3 945.1,200.8 		"/>
		<path class="st30" d="M854.9,201.2l-57.4,21.1l8.8-37.3l-31.6-20.3c0,0,32.6-11,31.5-11c-1.2,0-31.5-34.2-31.5-34.2l107.6,5.1
			l91.5,43.3l5.3,37.6l-23,0.5l-14.2,22l-37.3-22.6l3.4,17.6L854.9,201.2z"/>
	</g>
	<path class="st15" d="M994.9,527.7v4.5c0,33-26.8,59.8-59.8,59.8h-22.1c-33,0-59.8-26.8-59.8-59.8v-4.5H994.9z"/>
	<g>
		<g>
			<path class="st19" d="M947.7,817.6c-13,0-23.6-10.6-23.6-23.6V610.7c0-13,10.6-23.6,23.6-23.6s23.6,10.6,23.6,23.6V794
				C971.3,807.1,960.7,817.6,947.7,817.6z"/>
			<rect x="910.5" y="562.4" class="st15" width="74.4" height="109.4"/>
			<path class="st27" d="M974.2,782.8v48.5H860.2v-15.5c0-18.2,14.8-33,33-33H974.2z"/>
			<path class="st27" d="M922.4,773.3h2.2v11.5h-8.9V780C915.7,776.3,918.7,773.3,922.4,773.3z"/>
			<g>
				<path class="st31" d="M893.9,779.1c-2.1,0-3.7,1.7-3.7,3.7v8.8c0,2.1,1.7,3.7,3.7,3.7c2.1,0,3.7-1.7,3.7-3.7v-8.8
					C897.6,780.8,895.9,779.1,893.9,779.1z"/>
				<path class="st31" d="M906.7,779.1c-2.1,0-3.7,1.7-3.7,3.7v8.8c0,2.1,1.7,3.7,3.7,3.7c2.1,0,3.7-1.7,3.7-3.7v-8.8
					C910.4,780.8,908.7,779.1,906.7,779.1z"/>
			</g>
			<g>
				<polygon class="st31" points="964.3,605.6 957.5,603.7 957.5,608.8 964.3,610.7 				"/>
				<polygon class="st31" points="957.5,619.1 957.5,671.8 964.3,671.8 964.3,620.9 				"/>
				<polygon class="st31" points="938.9,603.8 945.7,605.6 945.7,600.5 938.9,598.7 				"/>
				<polygon class="st31" points="964.3,595.3 964.3,562.6 957.5,562.6 957.5,593.5 				"/>
				<polygon class="st31" points="945.7,590.3 945.7,562.6 938.9,562.6 938.9,588.5 				"/>
				<polygon class="st31" points="938.9,614 938.9,671.8 945.7,671.8 945.7,615.9 				"/>
			</g>
		</g>
		<rect x="860.2" y="820.6" class="st15" width="113.9" height="10.5"/>
	</g>
	<path class="st19" d="M976.8,571.9c-5.3,0-10.7-1.8-15.1-5.5c-10-8.4-11.3-23.2-3-33.2l41.4-49.5L944.3,428
		c-9.2-9.2-9.3-24.1-0.1-33.4c9.2-9.2,24.1-9.3,33.4-0.1l71.2,71c8.7,8.6,9.3,22.5,1.4,31.9l-55.3,66.1
		C990.3,569.1,983.6,571.9,976.8,571.9z"/>
	<circle class="st19" cx="965.5" cy="551.3" r="35.2"/>
	
		<rect x="989.7" y="496.3" transform="matrix(0.6498 -0.7601 0.7601 0.6498 -46.3299 942.0161)" class="st15" width="18.9" height="49.9"/>
	<g>
		<g>
			
				<rect x="721.3" y="368.2" transform="matrix(0.9659 -0.2588 0.2588 0.9659 -72.0337 200.9462)" class="st15" width="11.6" height="11.6"/>
			<path class="st13" d="M711.4,367.3l1.1,4.1c0.6,2.2,2.8,3.5,5,2.9l18.2-4.9c2.2-0.6,3.5-2.8,2.9-5l-1.1-4.1
				c-0.6-2.2-2.8-3.5-5-2.9l-18.2,4.9C712.1,362.9,710.8,365.1,711.4,367.3z"/>
		</g>
		<g>
			<g>
				
					<rect x="745.9" y="371.8" transform="matrix(0.3618 -0.9323 0.9323 0.3618 128.3447 938.4259)" class="st15" width="7.3" height="7.3"/>
				<path class="st17" d="M745.7,366.8l-1,2.5c-0.5,1.3,0.1,2.8,1.5,3.3l7.8,3c1.3,0.5,2.8-0.1,3.3-1.5l1-2.5
					c0.5-1.3-0.1-2.8-1.5-3.3l-7.8-3C747.7,364.8,746.2,365.5,745.7,366.8z"/>
			</g>
			<g>
				
					<rect x="704.8" y="382.9" transform="matrix(0.6264 -0.7795 0.7795 0.6264 -36.6249 696.5767)" class="st15" width="7.3" height="7.3"/>
				<path class="st32" d="M707.5,377.1l2.1,1.7c1.1,0.9,1.3,2.5,0.4,3.6l-5.3,6.5c-0.9,1.1-2.5,1.3-3.6,0.4l-2.1-1.7
					c-1.1-0.9-1.3-2.5-0.4-3.6l5.3-6.5C704.8,376.3,706.4,376.2,707.5,377.1z"/>
			</g>
		</g>
		
			<ellipse transform="matrix(0.9659 -0.2588 0.2588 0.9659 -81.0139 204.666)" class="st17" cx="736.8" cy="410" rx="36.2" ry="36.2"/>
		
			<ellipse transform="matrix(0.9659 -0.2588 0.2588 0.9659 -81.0139 204.666)" class="st31" cx="736.8" cy="410" rx="26.1" ry="26.1"/>
		<path class="st33" d="M736.8,413.2c-0.2,0-0.4,0-0.6-0.1c-1.7-0.3-2.8-1.9-2.5-3.7l3.5-19.4c0.3-1.7,1.9-2.8,3.7-2.5
			c1.7,0.3,2.8,1.9,2.5,3.7l-3.5,19.4C739.6,412.1,738.3,413.2,736.8,413.2z"/>
	</g>
	<path class="st19" d="M681.8,421.2l16.3,27.8c4.4,7.5,14,10,21.4,5.6l7-3.9c7.5-4.4,10-14,5.6-21.4l-16.3-27.8
		c-4.4-7.5-14-10-21.4-5.6l-7,3.9C680,404.1,677.4,413.7,681.8,421.2z"/>
</g>
</svg>
